<svg width="55" height="70" viewBox="0 0 55 70" fill="none" xmlns="http://www.w3.org/2000/svg">
<path d="M37.8934 34.3548C37.3055 35.8796 36.7783 37.3435 36.1701 38.7667C35.3794 40.6373 34.5077 42.4671 33.1493 44.0327C32.1153 45.2119 30.9192 46.0862 29.2973 46.2691C27.8578 46.4318 26.6414 46.0048 25.6074 45.0086C24.3099 43.7277 23.6611 42.1011 23.1542 40.3933C22.4852 38.1365 22.2216 35.7983 21.9784 33.4602C21.6337 29.9225 21.3904 26.4051 21.4512 22.847C21.5526 17.2761 22.3636 11.8476 24.4923 6.66299C25.0803 5.21944 25.8507 3.89788 26.986 2.8203C28.6282 1.27509 30.4529 1.11244 32.3586 2.31201C34.5685 3.7149 35.9674 6.96797 35.3794 9.38744C35.2578 9.91607 34.974 10.4244 34.7104 10.892C34.3049 11.5426 33.5953 11.4816 33.2101 10.8107C32.6627 9.89573 32.1153 8.98081 31.5071 8.10654C31.1016 7.51692 30.6151 6.9883 30.1082 6.35802C29.946 6.602 29.8041 6.78498 29.7027 7.00863C28.6485 9.0418 28.0808 11.2376 27.7159 13.4944C27.0266 17.7844 26.9049 22.0948 27.0671 26.4254C27.2293 30.4714 27.5131 34.5174 28.3849 38.4821C28.5877 39.4174 28.8918 40.312 29.1553 41.2269C29.2162 41.4099 29.3175 41.5928 29.4594 41.9182C30.1285 41.0846 30.757 40.3933 31.3044 39.6207C32.7033 37.6485 33.6156 35.4323 34.4063 33.1552C35.2781 30.5934 36.1093 28.0113 37.0419 25.4495C37.4474 24.3109 37.5893 23.152 37.6704 21.9524C37.8934 18.5774 38.38 15.2633 39.5559 12.0712C40.2046 10.3227 40.9548 8.63517 42.0496 7.11029C42.9011 5.93105 43.9959 5.11778 45.3745 4.69082C46.5099 4.34518 47.4425 4.73148 48.1926 5.56508C49.0644 6.52067 49.4496 7.72024 49.7942 8.91981C50.4836 11.3393 50.6052 13.8401 50.4227 16.3409C50.22 19.106 49.9159 21.8711 49.6118 24.6362C49.4496 26.1001 49.2063 27.564 49.0036 29.0279C48.9833 29.1295 48.9833 29.2108 49.0846 29.3938C49.4293 29.0889 49.8145 28.8042 50.0781 28.4586C50.5646 27.8283 50.9701 27.1167 51.4567 26.4661C51.7608 26.0798 52.1055 25.7341 52.511 25.4495C52.9367 25.1445 53.4638 25.1445 53.8896 25.4698C54.2748 25.7545 54.3153 26.2018 54.1937 26.6287C54.0518 27.1167 53.9099 27.6046 53.6868 28.0519C52.8151 29.7395 51.8216 31.3253 50.0983 32.2606C49.7334 32.4639 49.3279 32.6672 48.9225 32.7282C48.4359 32.8096 48.3548 33.0739 48.2737 33.4805C47.9493 34.985 47.6452 36.4896 47.2194 37.9535C46.8342 39.275 46.0638 40.4136 44.9893 41.3285C43.8134 42.3248 42.5767 42.3655 41.3805 41.3895C40.083 40.312 39.272 38.9091 38.7449 37.3232C38.4611 36.4693 38.2786 35.5747 38.0556 34.7004C37.9745 34.6394 37.934 34.5174 37.8934 34.3548ZM47.1992 15.7919C47.0775 14.4297 47.0167 12.9862 46.814 11.5426C46.6923 10.6073 46.3882 9.69242 46.0841 8.79782C46.0233 8.5945 45.6786 8.35052 45.4962 8.39119C45.2326 8.43185 44.8677 8.63517 44.7663 8.87915C44.1986 10.16 43.6715 11.4409 43.1849 12.7625C41.9888 15.8936 41.6644 19.2077 41.4008 22.5014C41.0967 26.1408 41.1778 29.7801 41.5833 33.3992C41.7252 34.7411 42.0699 36.0626 42.8403 37.2012C42.9822 37.4045 43.2255 37.5468 43.4079 37.7095C43.5701 37.5062 43.7729 37.3029 43.854 37.0792C44.3405 35.473 44.8068 33.8668 45.2529 32.2403C45.2934 32.1183 45.192 31.8946 45.0907 31.793C44.1581 30.8577 43.7931 29.7395 43.8945 28.4586C44.0162 26.954 44.6446 25.7545 46.1652 25.1648C46.2868 25.1242 46.4085 24.9005 46.4288 24.7379C46.5099 24.1483 46.5504 23.579 46.5909 22.9893C46.814 20.6309 47.0167 18.2521 47.1992 15.7919Z" fill="#DB4A2B"/>
<path d="M15.6726 22.1961C14.294 22.6028 12.8951 23.0297 11.5976 23.4364C12.1044 25.8355 12.6518 28.2143 13.0573 30.5931C13.2803 31.874 13.3411 33.1752 13.402 34.4765C13.8277 42.3448 13.7466 50.2132 13.6858 58.0816C13.6655 61.0703 13.5641 64.0591 12.9154 66.9869C12.7937 67.5765 12.5707 68.1864 12.2666 68.715C11.4962 70.0569 10.0162 70.3822 8.69839 69.5283C7.62387 68.837 6.9751 67.7798 6.5899 66.6005C5.92086 64.486 5.27209 62.3512 4.78552 60.1961C3.79209 55.8247 2.83921 51.4331 1.98771 47.0211C1.56195 44.805 1.37949 42.5278 1.1362 40.271C0.791544 36.8146 0.6699 33.3176 0.791544 29.8408C0.852366 27.9093 1.05511 25.9778 1.35921 24.0666C1.74442 21.9725 2.21072 19.8783 2.73784 17.8045C3.10278 16.3203 3.79209 14.958 4.86661 13.8195C5.9614 12.6809 7.29949 12.2742 8.84031 12.4166C9.40798 12.4572 9.77291 12.7825 9.89456 13.2908C10.0162 13.7991 9.85401 14.2871 9.32688 14.5311C7.31976 15.507 6.54935 17.3368 6.00195 19.3293C5.63702 20.6306 6.08305 21.1795 7.40086 21.0575C8.29291 20.9762 9.16469 20.7322 10.0567 20.5493C11.6381 20.2443 13.2398 19.9596 14.8211 19.675C15.0036 19.6343 15.2063 19.6343 15.3888 19.6343C16.1795 19.614 16.1998 19.614 16.3214 18.8007C16.5241 17.3165 16.7269 15.812 16.8485 14.3277C16.9499 12.9655 16.808 11.644 15.9159 10.4851C15.5104 9.95643 15.7335 9.12284 16.3214 8.57388C17.2337 7.69962 18.9165 7.67929 19.8491 8.53322C20.8222 9.42781 21.1466 10.6274 21.2277 11.8879C21.3899 14.3684 21.1061 16.8082 20.5992 19.2277C19.7882 23.1924 19.3625 27.1571 19.5247 31.2031C19.5652 32.179 19.6666 33.1346 19.6666 34.1105C19.6463 35.0458 19.5652 36.0013 19.403 36.9366C19.2814 37.6482 18.7746 38.1565 18.0244 38.2988C17.2135 38.4411 16.5241 38.2175 15.997 37.5262C15.3483 36.6723 15.1252 35.6557 14.9833 34.6391C14.6184 32.0367 14.8211 29.4342 15.1252 26.8521C15.3077 25.2662 15.5104 23.7007 15.6726 22.1961ZM9.44853 61.4566C9.67154 61.0907 9.9351 60.806 10.0162 60.4807C10.1784 59.8301 10.3 59.1591 10.3 58.5085C10.2595 55.9671 10.2392 53.4256 10.0973 50.8841C9.83373 46.3298 9.5499 41.7755 9.16469 37.2416C8.9214 34.3341 8.55647 31.4267 8.09017 28.5599C7.88743 27.279 7.38058 26.0388 6.9751 24.7986C6.91428 24.5749 6.69127 24.3106 6.5088 24.2496C6.1236 24.148 5.71812 24.1683 5.25182 24.1276C5.25182 24.3513 5.25182 24.5139 5.25182 24.6969C5.21127 30.2678 5.13017 35.859 5.73839 41.4096C6.00195 43.8494 6.34661 46.2892 6.75209 48.7087C7.31976 52.1244 7.96853 55.5401 8.59702 58.9558C8.73894 59.7691 8.86058 60.623 9.44853 61.4566Z" fill="#DB4A2B"/>
<path d="M15.916 3.14511C16.1188 2.61649 16.2404 2.06753 16.5242 1.57957C16.8689 0.928959 17.4568 0.562988 18.2272 0.562988C19.3829 0.562988 20.356 0.908627 20.9034 2.00654C21.4103 3.06379 21.4711 4.14137 20.8426 5.17828C19.9303 6.68283 18.0042 6.41852 16.9905 5.50359C16.3012 4.91397 15.9768 4.12104 15.916 3.14511Z" fill="#DB4A2B"/>
</svg>
