<svg width="54" height="70" viewBox="0 0 54 70" fill="none" xmlns="http://www.w3.org/2000/svg">
<path d="M37.1478 33.7918C36.5599 35.3167 36.0327 36.7805 35.4245 38.2038C34.6338 40.0743 33.7621 41.9041 32.4037 43.4697C31.3697 44.6489 30.1736 45.5232 28.5517 45.7062C27.1122 45.8688 25.8958 45.4418 24.8618 44.4456C23.5643 43.1647 22.9155 41.5382 22.4086 39.8303C21.7396 37.5735 21.476 35.2353 21.2327 32.8972C20.8881 29.3595 20.6448 25.8421 20.7056 22.284C20.807 16.7132 21.618 11.2846 23.7467 6.10001C24.3347 4.65646 25.1051 3.33489 26.2404 2.25731C27.8826 0.712106 29.7073 0.549452 31.613 1.74902C33.8229 3.15191 35.2218 6.40498 34.6338 8.82445C34.5122 9.35308 34.2284 9.86137 33.9648 10.329C33.5593 10.9796 32.8497 10.9186 32.4645 10.2477C31.9171 9.33275 31.3697 8.41782 30.7615 7.54356C30.356 6.95394 29.8695 6.42531 29.3626 5.79503C29.2004 6.03901 29.0585 6.222 28.9571 6.44564C27.9029 8.47881 27.3352 10.6746 26.9703 12.9315C26.281 17.2214 26.1593 21.5318 26.3215 25.8624C26.4837 29.9084 26.7675 33.9544 27.6393 37.9191C27.8421 38.8544 28.1462 39.749 28.4097 40.6639C28.4706 40.8469 28.5719 41.0299 28.7138 41.3552C29.3829 40.5216 30.0114 39.8303 30.5588 39.0577C31.9577 37.0855 32.87 34.8694 33.6607 32.5922C34.5325 30.0304 35.3637 27.4483 36.2963 24.8865C36.7018 23.7479 36.8437 22.589 36.9248 21.3894C37.1478 18.0144 37.6344 14.7003 38.8103 11.5082C39.459 9.75971 40.2092 8.07218 41.304 6.5473C42.1555 5.36806 43.2503 4.5548 44.6289 4.12783C45.7642 3.78219 46.6969 4.16849 47.447 5.00209C48.3188 5.95768 48.704 7.15725 49.0486 8.35682C49.7379 10.7763 49.8596 13.2771 49.6771 15.7779C49.4744 18.543 49.1703 21.3081 48.8662 24.0732C48.704 25.5371 48.4607 27.001 48.2579 28.4649C48.2377 28.5665 48.2377 28.6479 48.339 28.8308C48.6837 28.5259 49.0689 28.2412 49.3325 27.8956C49.819 27.2653 50.2245 26.5537 50.7111 25.9031C51.0152 25.5168 51.3599 25.1711 51.7653 24.8865C52.1911 24.5815 52.7182 24.5815 53.144 24.9068C53.5292 25.1915 53.5697 25.6388 53.4481 26.0657C53.3062 26.5537 53.1642 27.0417 52.9412 27.489C52.0695 29.1765 51.076 30.7624 49.3527 31.6976C48.9878 31.9009 48.5823 32.1042 48.1769 32.1652C47.6903 32.2466 47.6092 32.5109 47.5281 32.9175C47.2037 34.4221 46.8996 35.9266 46.4738 37.3905C46.0886 38.712 45.3182 39.8506 44.2437 40.7655C43.0678 41.7618 41.8311 41.8025 40.6349 40.8265C39.3374 39.749 38.5264 38.3461 37.9993 36.7602C37.7155 35.9063 37.533 35.0117 37.31 34.1374C37.2289 34.0764 37.1884 33.9544 37.1478 33.7918ZM46.4536 15.2289C46.3319 13.8667 46.2711 12.4232 46.0684 10.9796C45.9467 10.0444 45.6426 9.12943 45.3385 8.23483C45.2777 8.03152 44.933 7.78754 44.7505 7.8282C44.487 7.86886 44.1221 8.07218 44.0207 8.31616C43.453 9.59706 42.9259 10.878 42.4393 12.1995C41.2432 15.3306 40.9188 18.6447 40.6552 21.9384C40.3511 25.5778 40.4322 29.2171 40.8377 32.8362C40.9796 34.1781 41.3242 35.4996 42.0947 36.6382C42.2366 36.8415 42.4799 36.9839 42.6623 37.1465C42.8245 36.9432 43.0273 36.7399 43.1084 36.5162C43.5949 34.91 44.0612 33.3038 44.5073 31.6773C44.5478 31.5553 44.4464 31.3316 44.3451 31.23C43.4125 30.2947 43.0475 29.1765 43.1489 27.8956C43.2706 26.391 43.899 25.1915 45.4196 24.6019C45.5412 24.5612 45.6629 24.3375 45.6832 24.1749C45.7642 23.5853 45.8048 23.016 45.8453 22.4264C46.0684 20.0679 46.2711 17.6891 46.4536 15.2289Z" fill="#DB4A2B"/>
<path d="M14.927 21.6331C13.5484 22.0398 12.1495 22.4667 10.852 22.8734C11.3588 25.2725 11.9062 27.6513 12.3117 30.0301C12.5347 31.311 12.5955 32.6122 12.6563 33.9135C13.0821 41.7818 13.001 49.6502 12.9402 57.5186C12.9199 60.5073 12.8185 63.4961 12.1698 66.4239C12.0481 67.0135 11.8251 67.6234 11.521 68.1521C10.7506 69.4939 9.27059 69.8193 7.95279 68.9653C6.87826 68.274 6.2295 67.2168 5.84429 66.0376C5.17525 63.9231 4.52648 61.7882 4.03991 59.6331C3.04649 55.2618 2.09361 50.8701 1.2421 46.4581C0.816349 44.242 0.633883 41.9648 0.390596 39.708C0.0459383 36.2516 -0.0757055 32.7546 0.0459383 29.2778C0.10676 27.3463 0.3095 25.4148 0.613609 23.5036C0.998815 21.4095 1.46512 19.3153 1.99224 17.2415C2.35717 15.7573 3.04649 14.395 4.12101 13.2565C5.2158 12.1179 6.55388 11.7113 8.0947 11.8536C8.66237 11.8942 9.02731 12.2196 9.14895 12.7278C9.27059 13.2361 9.1084 13.7241 8.58128 13.9681C6.57416 14.944 5.80374 16.7739 5.25635 18.7664C4.89142 20.0676 5.33744 20.6165 6.65525 20.4946C7.54731 20.4132 8.41909 20.1692 9.31114 19.9863C10.8925 19.6813 12.4942 19.3966 14.0755 19.112C14.258 19.0713 14.4607 19.0713 14.6432 19.0713C15.4339 19.051 15.4542 19.051 15.5758 18.2377C15.7785 16.7535 15.9813 15.249 16.1029 13.7648C16.2043 12.4025 16.0624 11.081 15.1703 9.92207C14.7648 9.39345 14.9879 8.55985 15.5758 8.01089C16.4881 7.13663 18.1709 7.1163 19.1035 7.97023C20.0766 8.86482 20.401 10.0644 20.4821 11.325C20.6443 13.8054 20.3605 16.2452 19.8536 18.6647C19.0426 22.6294 18.6169 26.5941 18.7791 30.6401C18.8196 31.616 18.921 32.5716 18.921 33.5475C18.9007 34.4828 18.8196 35.4384 18.6574 36.3736C18.5358 37.0852 18.0289 37.5935 17.2788 37.7358C16.4678 37.8782 15.7785 37.6545 15.2514 36.9632C14.6026 36.1093 14.3796 35.0927 14.2377 34.0761C13.8728 31.4737 14.0755 28.8712 14.3796 26.2891C14.5621 24.7032 14.7648 23.1377 14.927 21.6331ZM8.70292 60.8936C8.92594 60.5277 9.1895 60.243 9.27059 59.9177C9.43279 59.2671 9.55443 58.5962 9.55443 57.9455C9.51388 55.4041 9.49361 52.8626 9.35169 50.3212C9.08813 45.7669 8.80429 41.2126 8.41909 36.6786C8.1758 33.7712 7.81087 30.8637 7.34457 27.997C7.14183 26.7161 6.63498 25.4758 6.2295 24.2356C6.16868 24.0119 5.94566 23.7476 5.7632 23.6866C5.37799 23.585 4.97251 23.6053 4.50621 23.5646C4.50621 23.7883 4.50621 23.9509 4.50621 24.1339C4.46566 29.7048 4.38457 35.296 4.99279 40.8466C5.25635 43.2864 5.601 45.7262 6.00648 48.1457C6.57415 51.5614 7.22292 54.9771 7.85142 58.3928C7.99333 59.2061 8.11498 60.06 8.70292 60.8936Z" fill="#DB4A2B"/>
<path d="M15.1704 2.58213C15.3731 2.0535 15.4948 1.50455 15.7786 1.01658C16.1233 0.365971 16.7112 0 17.4816 0C18.6373 0 19.6104 0.345639 20.1578 1.44355C20.6647 2.5008 20.7255 3.57838 20.097 4.6153C19.1847 6.11984 17.2586 5.85553 16.2449 4.9406C15.5556 4.35098 15.2312 3.55805 15.1704 2.58213Z" fill="#DB4A2B"/>
</svg>
