<svg width="7" height="13" viewBox="0 0 7 13" fill="none" xmlns="http://www.w3.org/2000/svg">
<path d="M4.04678 0.636818C2.95673 0.870736 2.15439 1.59822 1.86433 2.62278C1.73567 3.08126 1.7076 3.33156 1.7076 4.07308V4.62278H1.12749C0.432749 4.62278 0.353216 4.63916 0.184795 4.80758C0.00467836 4.9877 0 5.01343 0 6.13389C0 6.72337 0.00935673 7.14442 0.025731 7.21226C0.0584795 7.3643 0.154386 7.4953 0.292398 7.58185L0.404678 7.65202L1.05497 7.65904L1.7076 7.66606L1.71228 9.91635L1.7193 12.1666L1.77076 12.2625C1.82924 12.3748 1.96491 12.4988 2.07251 12.5433C2.18713 12.59 4.33918 12.59 4.4538 12.5433C4.5614 12.4988 4.69708 12.3748 4.75556 12.2625L4.80702 12.1666L4.81404 9.91401L4.81871 7.66372H5.55088C5.99766 7.66372 6.31579 7.65436 6.37193 7.63799C6.48421 7.60758 6.65965 7.44618 6.71579 7.32454C6.75556 7.23799 6.76023 7.14676 6.76023 6.14325V5.05553L6.69006 4.93156C6.60351 4.78185 6.47018 4.68126 6.31345 4.64851C6.24561 4.63214 5.90877 4.62278 5.50643 4.62278H4.81404L4.82339 4.12454C4.82807 3.85319 4.83977 3.61226 4.85146 3.5912C4.89123 3.50232 4.9731 3.49062 5.7076 3.47658C6.38129 3.46489 6.42573 3.46255 6.51462 3.41343C6.61287 3.36196 6.69708 3.27775 6.77427 3.1608C6.81637 3.0953 6.81871 3.03214 6.82573 2.08477C6.83041 1.53039 6.82573 1.04618 6.81871 1.00641C6.8 0.898807 6.68772 0.744421 6.5731 0.667228L6.47252 0.599391L5.33567 0.60173C4.45614 0.60173 4.16374 0.611087 4.04678 0.636818ZM6.10526 2.02629V2.75144H5.59298C5.00819 2.75144 4.79532 2.77951 4.56842 2.89179C4.32047 3.01343 4.16608 3.24501 4.11696 3.56547C4.10058 3.65904 4.09357 4.00992 4.09825 4.4146L4.10526 5.10699L4.16842 5.18887C4.28772 5.34559 4.29942 5.34793 5.21404 5.34793H6.03509V6.14325V6.93623L5.19766 6.94325L4.35789 6.95027L4.27368 7.00875C4.22456 7.0415 4.16608 7.10933 4.14035 7.16313C4.09357 7.25436 4.09357 7.3105 4.09357 9.55378V11.8509H3.26316H2.43275V9.56079C2.43275 8.00056 2.42573 7.24734 2.40702 7.2029C2.37193 7.10465 2.24795 6.9877 2.15205 6.96196C2.1076 6.95027 1.76842 6.93857 1.39883 6.93857H0.725146V6.14325V5.34793H1.42924C2.2152 5.34793 2.2386 5.34325 2.35789 5.18887L2.42105 5.10699L2.43509 4.20407C2.44912 3.24033 2.46082 3.1374 2.58713 2.75612C2.72749 2.33506 2.97076 1.98886 3.29357 1.74793C3.6 1.52337 3.96491 1.37834 4.39766 1.31518C4.43041 1.3105 4.82807 1.30582 5.28187 1.30348L6.10526 1.30115V2.02629Z" fill="#282828"/>
</svg>
