<svg xmlns="http://www.w3.org/2000/svg" version="1.1" xmlns:xlink="http://www.w3.org/1999/xlink" xmlns:svgjs="http://svgjs.dev/svgjs" width="46" height="58"><svg width="46" height="58" viewBox="0 0 46 58" fill="none" xmlns="http://www.w3.org/2000/svg">
<path fill-rule="evenodd" clip-rule="evenodd" d="M31.2162 28.6818C31.3497 28.329 31.4847 27.9726 31.6237 27.6121C31.6578 27.7489 31.6919 27.8515 31.7601 27.9028C31.8145 28.1162 31.866 28.331 31.9176 28.5459C32.0439 29.0718 32.1703 29.5988 32.3398 30.1085C32.7831 31.4422 33.4651 32.622 34.5563 33.5282C35.5622 34.349 36.6023 34.3148 37.5912 33.4769C38.4948 32.7075 39.1427 31.75 39.4667 30.6386C39.7765 29.5732 40.0098 28.4822 40.2438 27.3877C40.2801 27.2175 40.3166 27.0472 40.3533 26.8769C40.4215 26.5349 40.4897 26.3126 40.8989 26.2443C41.2399 26.193 41.5809 26.022 41.8878 25.851C43.337 25.0645 44.1725 23.7308 44.9056 22.3116C45.0932 21.9354 45.2125 21.5251 45.3319 21.1147C45.4342 20.7556 45.4001 20.3795 45.0761 20.1401C44.7181 19.8665 44.2748 19.8665 43.9167 20.123C43.5757 20.3624 43.2859 20.653 43.0301 20.9779C42.8362 21.2372 42.6577 21.5079 42.4799 21.7775C42.2825 22.0768 42.086 22.3747 41.8707 22.6536C41.7045 22.8716 41.4807 23.0607 41.2569 23.2499C41.1823 23.3129 41.1077 23.376 41.0353 23.4401C40.95 23.2862 40.95 23.2178 40.9671 23.1323C41.0239 22.722 41.0845 22.3116 41.1451 21.9013C41.2664 21.0805 41.3876 20.2598 41.4786 19.439L41.4786 19.4387C41.7343 17.1134 41.9901 14.7881 42.1606 12.4628C42.314 10.3597 42.2117 8.25657 41.632 6.22185C41.3422 5.21303 41.0182 4.20422 40.2851 3.40059C39.6542 2.69955 38.8699 2.37467 37.9151 2.66535C36.7557 3.02442 35.835 3.70836 35.1189 4.70008C34.1982 5.98247 33.5674 7.40165 33.0218 8.87212C32.0329 11.5566 31.6237 14.3437 31.4361 17.182C31.3679 18.1908 31.2486 19.1655 30.9076 20.123C30.3621 21.6214 29.8578 23.1282 29.3546 24.6317C29.1343 25.2898 28.9143 25.9474 28.6911 26.6033C28.0261 28.5184 27.2589 30.3821 26.0824 32.0407C25.7806 32.4666 25.4495 32.8632 25.0987 33.2833C24.9144 33.5041 24.7247 33.7313 24.5309 33.9728C24.4843 33.866 24.4429 33.7774 24.4066 33.6999C24.3501 33.579 24.3063 33.4852 24.2751 33.3915C24.2106 33.1674 24.1431 32.9448 24.0758 32.7224C23.9117 32.181 23.7481 31.6406 23.6272 31.0831C22.8941 27.7489 22.6554 24.3463 22.519 20.9437C22.3826 17.3017 22.4849 13.6768 23.0646 10.069C23.3715 8.17108 23.8489 6.32444 24.7355 4.61458C24.8003 4.47156 24.8848 4.34832 24.9816 4.20726C25.0121 4.16281 25.0438 4.11659 25.0765 4.06743C25.2168 4.24199 25.3554 4.40728 25.4902 4.56818C25.7648 4.89586 26.0242 5.20535 26.2529 5.5379C26.7644 6.27314 27.2248 7.04258 27.6851 7.81201C28.0091 8.37627 28.6058 8.42756 28.9468 7.88041C29.1685 7.48714 29.4072 7.05968 29.5095 6.61511C30.0039 4.58039 28.8275 1.84462 26.969 0.664817C25.3663 -0.343998 23.8318 -0.207209 22.4508 1.09228C21.496 1.9985 20.8481 3.10991 20.3536 4.32391C18.5634 8.68404 17.8814 13.2494 17.7961 17.9344C17.745 20.9266 17.9496 23.8847 18.2394 26.8598C18.444 28.8261 18.6657 30.7925 19.2283 32.6904C19.6546 34.1267 20.2002 35.4946 21.2914 36.5718C22.1609 37.4096 23.1839 37.7687 24.3945 37.6319C25.7585 37.478 26.7644 36.7428 27.634 35.7511C28.7763 34.4345 29.5095 32.8956 30.1744 31.3225C30.5421 30.4621 30.8746 29.5839 31.2162 28.6818ZM39.3615 10.8824C39.3894 11.2608 39.4169 11.6345 39.4496 12.0012C39.2962 14.0701 39.1257 16.0706 38.9381 18.054C38.904 18.5499 38.8699 19.0287 38.8017 19.5245C38.7847 19.6613 38.6824 19.8494 38.5801 19.8836C37.3013 20.3795 36.7728 21.3883 36.6705 22.6536C36.5852 23.7308 36.8921 24.6712 37.6764 25.4577C37.7617 25.5432 37.8469 25.7313 37.8128 25.8339C37.4377 27.2018 37.0456 28.5526 36.6364 29.9033C36.5836 30.0489 36.4696 30.1842 36.3575 30.3172C36.3247 30.3561 36.2921 30.3947 36.2613 30.4334C36.2113 30.3888 36.1559 30.3461 36.0997 30.3028C35.9836 30.2132 35.8643 30.1212 35.7839 30.0059C35.136 29.0484 34.8461 27.937 34.7268 26.8085C34.3858 23.765 34.3176 20.7043 34.5733 17.6437C34.795 14.8737 35.0678 12.0867 36.0737 9.45347C36.4829 8.34207 36.9262 7.26486 37.4036 6.18765C37.4889 5.98247 37.7958 5.81148 38.0174 5.77729C38.1709 5.74309 38.4607 5.94827 38.5119 6.11926C38.7676 6.87159 39.0234 7.64103 39.1257 8.42756C39.2416 9.25299 39.3024 10.0784 39.3615 10.8824ZM9.50909 18.4296C10.6003 18.0876 11.7767 17.7285 12.9361 17.3866C12.8552 18.1374 12.7623 18.9063 12.668 19.6861C12.6034 20.2204 12.5382 20.7599 12.4758 21.3021C12.22 23.4737 12.0495 25.6623 12.3564 27.8509C12.4758 28.7058 12.6633 29.5607 13.2089 30.2789C13.6522 30.8602 14.2319 31.0483 14.9139 30.9286C15.5448 30.8089 15.971 30.3815 16.0733 29.783C16.2097 28.9965 16.2779 28.1929 16.295 27.4063C16.295 26.895 16.2619 26.3904 16.2287 25.8841C16.2086 25.5777 16.1885 25.2707 16.1756 24.9612C16.0392 21.5586 16.3973 18.2244 17.0793 14.8902C17.5055 12.8555 17.7442 10.8036 17.6078 8.7176C17.5396 7.65749 17.2668 6.64868 16.4484 5.89634C15.6641 5.1782 14.249 5.1953 13.4817 5.93054C12.9873 6.3922 12.7997 7.09324 13.1407 7.5378C13.8909 8.51242 14.0103 9.62383 13.925 10.7694C13.8227 12.0176 13.6522 13.2829 13.4817 14.5311C13.3795 15.2146 13.3624 15.2151 12.6987 15.2321L12.6974 15.2322H12.6974C12.544 15.2322 12.3735 15.2322 12.22 15.2664C12.0446 15.2979 11.8689 15.3295 11.6929 15.3611C10.5351 15.5692 9.36777 15.7789 8.21329 16.0016C8.002 16.0449 7.79205 16.0923 7.5827 16.1396C7.04875 16.2602 6.51865 16.3799 5.97974 16.4291C4.87149 16.5316 4.4964 16.07 4.80329 14.9757C5.26364 13.3 5.91154 11.7611 7.59949 10.9404C8.04279 10.7352 8.17919 10.3249 8.07689 9.8974C7.97459 9.46994 7.66769 9.19636 7.19029 9.16217C5.8945 9.04248 4.76919 9.38445 3.8485 10.342C2.94485 11.2995 2.36515 12.4451 2.05825 13.6933C1.61495 15.4373 1.2228 17.1985 0.898846 18.9596C0.643096 20.5669 0.472596 22.1913 0.421446 23.8156C0.319146 26.7395 0.421446 29.6804 0.711296 32.5872C0.752488 32.9693 0.791607 33.3521 0.83074 33.7351C0.985977 35.2542 1.14143 36.7754 1.4274 38.2639C2.1435 41.9743 2.94485 45.6676 3.7803 49.3438C4.1895 51.1562 4.7351 52.9516 5.29774 54.7298C5.62169 55.7215 6.16729 56.6107 7.07094 57.192C8.17919 57.9101 9.42384 57.6366 10.0717 56.5081C10.3275 56.0635 10.515 55.5505 10.6173 55.0547C11.1629 52.5925 11.2482 50.079 11.2652 47.5655C11.2672 47.311 11.2692 47.0565 11.2712 46.802C11.321 40.4394 11.3708 34.0767 11.0265 27.7141C10.9754 26.6198 10.9242 25.5255 10.7367 24.4483C10.4777 22.9288 10.1499 21.4094 9.8204 19.8825C9.71608 19.399 9.6116 18.9148 9.50909 18.4296ZM7.88335 50.1301C7.82336 50.2167 7.76088 50.3069 7.70179 50.4039C7.23449 49.7413 7.11746 49.0635 7.00527 48.4137C6.99875 48.376 6.99225 48.3383 6.98569 48.3008C6.87998 47.7262 6.77359 47.1517 6.66719 46.5772C6.24163 44.2791 5.81606 41.9811 5.43414 39.6831C5.09314 37.6484 4.80329 35.5965 4.58164 33.5447C4.09847 29.1353 4.13257 24.6954 4.16657 20.2682C4.16856 20.0086 4.17056 19.7491 4.17244 19.4897V19.0109C4.29833 19.0219 4.41894 19.0276 4.53541 19.0331C4.78176 19.0447 5.00958 19.0555 5.22954 19.1135C5.38299 19.1648 5.57054 19.3871 5.62169 19.5752C5.70408 19.8272 5.79144 20.0792 5.87897 20.3316C6.15373 21.1242 6.43014 21.9215 6.55944 22.7384C6.95159 25.1493 7.25849 27.5944 7.46309 30.0395C7.78704 33.8525 8.02574 37.6826 8.24739 41.5126C8.3497 43.3446 8.37684 45.1766 8.40398 47.0086C8.4085 47.3139 8.41302 47.6193 8.41789 47.9246C8.41789 48.4717 8.31559 49.036 8.17919 49.5832C8.13248 49.7705 8.01378 49.9419 7.88335 50.1301Z" fill="#DB4A2B"></path>
</svg><style>@media (prefers-color-scheme: light) { :root { filter: none; } }
@media (prefers-color-scheme: dark) { :root { filter: none; } }
</style></svg>