<svg width="19" height="20" viewBox="0 0 19 20" fill="none" xmlns="http://www.w3.org/2000/svg">
<path d="M1.28381 15.69L8.50067 19.7799C8.75743 19.9266 9.00962 20 9.25722 20C9.50481 20 9.76004 19.9266 10.0229 19.7799L17.2306 15.69C17.6524 15.4455 17.9718 15.1689 18.1889 14.8602C18.4059 14.5514 18.5144 14.07 18.5144 13.4159V6.15314C18.5144 5.6763 18.4243 5.28198 18.244 4.9702C18.0635 4.65841 17.7808 4.38942 17.3957 4.16323L10.9032 0.476852C10.353 0.158951 9.80589 0 9.2618 0C8.71771 0 8.1675 0.158951 7.61118 0.476852L1.12791 4.16323C0.736654 4.38942 0.450854 4.65841 0.270512 4.9702C0.0901708 5.28198 0 5.6763 0 6.15314V13.4159C0 14.07 0.11004 14.5514 0.330121 14.8602C0.550202 15.1689 0.868097 15.4455 1.28381 15.69ZM2.10911 14.4796C1.84013 14.3268 1.65367 14.1663 1.54974 13.9982C1.44581 13.83 1.39384 13.6207 1.39384 13.37V6.44659L8.53737 10.5273V18.1385L2.10911 14.4796ZM16.4145 14.4796L9.97707 18.1385V10.5273L17.1205 6.44659V13.37C17.1205 13.6207 17.0686 13.83 16.9646 13.9982C16.8607 14.1663 16.6773 14.3268 16.4145 14.4796ZM9.2618 9.24347L2.18249 5.23614L5.01605 3.61302L12.0954 7.63869L9.2618 9.24347ZM13.5717 6.80422L6.46492 2.78772L8.22557 1.78817C8.9225 1.39081 9.61332 1.39081 10.298 1.78817L16.3411 5.23614L13.5717 6.80422Z" fill="black"/>
</svg>
