<svg width="12" height="13" viewBox="0 0 12 13" fill="none" xmlns="http://www.w3.org/2000/svg">
<path d="M2.62502 0.60543C2.25236 0.66168 1.83048 0.806993 1.51877 0.985117C0.881266 1.35074 0.379704 1.96246 0.145329 2.66324C-0.00467128 3.11559 1.62197e-05 2.98199 1.62197e-05 6.58902C1.62197e-05 10.1961 -0.00467128 10.0625 0.145329 10.5148C0.478141 11.5109 1.2797 12.2421 2.34377 12.5234L2.54298 12.5773L5.89455 12.5843C9.60002 12.5914 9.46877 12.5961 9.9258 12.4437C10.9172 12.1109 11.6625 11.3 11.925 10.2687L11.9883 10.0226V6.58902V3.15543L11.932 2.93277C11.8594 2.64215 11.7867 2.4523 11.6578 2.20621C11.2922 1.51715 10.6617 0.98043 9.9258 0.734336C9.47345 0.584336 9.61173 0.589024 5.97892 0.591368C4.1672 0.593711 2.65783 0.598398 2.62502 0.60543ZM9.50392 1.4984C10.2891 1.71871 10.8844 2.31871 11.0906 3.09684L11.1445 3.29605V6.58902V9.88199L11.0906 10.0812C11.0344 10.2992 10.8961 10.6039 10.7789 10.7796C10.6688 10.939 10.3945 11.2179 10.2281 11.3375C10.036 11.4757 9.73127 11.6164 9.4922 11.6796L9.29298 11.7336H6.00002H2.70705L2.50783 11.6796C1.72502 11.4711 1.11564 10.864 0.909391 10.0812L0.855485 9.88199V6.58902V3.29605L0.909391 3.09684C1.1297 2.2648 1.79533 1.63902 2.63908 1.46793C2.77267 1.44215 3.37736 1.43746 6.05861 1.43981L9.31642 1.44449L9.50392 1.4984Z" fill="#282828"/>
<path d="M9.05857 2.13121C8.27107 2.40309 8.03904 3.38278 8.62263 3.96637C9.14529 4.48903 10.0336 4.36012 10.3781 3.71324C10.4742 3.52809 10.5023 3.4109 10.5023 3.18356C10.5023 2.67965 10.1976 2.26246 9.72888 2.12653C9.55544 2.07496 9.21091 2.07731 9.05857 2.13121ZM9.57654 3.01246C9.63513 3.07106 9.65623 3.11324 9.65623 3.16949C9.65623 3.28903 9.58123 3.39449 9.47107 3.42731C9.39138 3.45074 9.36794 3.4484 9.30232 3.4109C9.26013 3.38512 9.20388 3.32887 9.1781 3.28668C9.1406 3.22106 9.13826 3.19762 9.16169 3.11793C9.19451 3.00778 9.29998 2.93278 9.41951 2.93278C9.47576 2.93278 9.51794 2.95387 9.57654 3.01246Z" fill="#282828"/>
<path d="M5.50781 3.57497C5.23125 3.62419 5.04375 3.68044 4.82812 3.77184C4.41797 3.94528 4.13906 4.13512 3.83203 4.4445C3.41016 4.86872 3.13594 5.37966 3.00703 5.97966C2.97656 6.12966 2.96484 6.282 2.96484 6.58903C2.96484 6.89606 2.97656 7.04841 3.00703 7.19841C3.13594 7.79841 3.41016 8.307 3.83203 8.73591C4.25391 9.16013 4.77422 9.44372 5.37891 9.57966C5.63203 9.63591 6.19922 9.64763 6.47344 9.60309C7.78828 9.38747 8.79844 8.37731 9.01406 7.06247C9.05859 6.78591 9.04687 6.22341 8.98828 5.95622C8.85703 5.36325 8.58281 4.85934 8.15625 4.43278C7.73203 4.00856 7.22578 3.732 6.63281 3.60075C6.39375 3.54684 5.74219 3.53278 5.50781 3.57497ZM6.51797 4.45387C7.33359 4.66481 7.94531 5.28356 8.14922 6.11091C8.20312 6.33122 8.20312 6.84684 8.14922 7.06716C8.04609 7.48669 7.84922 7.83591 7.54687 8.13591C7.11328 8.57184 6.61875 8.77809 6 8.77809C5.38828 8.77809 4.89375 8.57419 4.4625 8.14762C3.73594 7.43044 3.59531 6.33591 4.11562 5.45934C4.27031 5.19919 4.61016 4.85934 4.87031 4.70466C5.08594 4.57809 5.44219 4.44684 5.67187 4.41169C5.88984 4.37887 6.30703 4.39997 6.51797 4.45387Z" fill="#282828"/>
</svg>
