<svg width="12" height="13" viewBox="0 0 12 13" fill="none" xmlns="http://www.w3.org/2000/svg">
<path d="M1.23984 0.63252C0.644531 0.777832 0.220312 1.20439 0.0539062 1.8208C0.0140625 1.96377 0.00234375 2.07627 0 2.31064C0 2.67627 0.0351562 2.84502 0.189844 3.16611C0.278906 3.35127 0.328125 3.41689 0.499219 3.58799C0.651562 3.74033 0.742969 3.81064 0.876562 3.87393C1.16953 4.01924 1.30547 4.04502 1.73203 4.04268C2.07422 4.04268 2.12344 4.03564 2.29453 3.97939C2.84766 3.79424 3.21094 3.3958 3.37734 2.78877C3.40781 2.67861 3.41953 2.55205 3.41953 2.31064C3.41719 1.92627 3.37266 1.72705 3.21797 1.42939C3 1.01221 2.57578 0.698145 2.10937 0.61377C1.89609 0.573926 1.43203 0.585645 1.23984 0.63252ZM2.13047 1.44111C2.48672 1.60283 2.67656 1.94502 2.65312 2.38096C2.63906 2.62471 2.57578 2.7958 2.43516 2.96924C2.18437 3.27627 1.67812 3.37705 1.29375 3.19658C0.576562 2.86143 0.585937 1.75049 1.30781 1.43174C1.53281 1.33096 1.90078 1.33564 2.13047 1.44111Z" fill="#282828"/>
<path d="M8.49395 4.14113C8.46114 4.14581 8.35567 4.16222 8.25958 4.17628C7.90333 4.22784 7.38302 4.43409 7.10177 4.63566C6.98223 4.72003 6.94942 4.71534 6.94708 4.60753C6.94708 4.53488 6.8627 4.41534 6.78302 4.37316C6.65411 4.30753 6.38223 4.29113 5.76348 4.31925C5.44239 4.33331 4.9713 4.338 4.72052 4.32863C4.19083 4.31222 4.11583 4.33097 4.01505 4.49269L3.9588 4.58409L3.97052 5.70909C3.98692 7.19503 3.97755 8.95753 3.94708 10.5138C3.91895 11.9224 3.93067 12.2364 4.02208 12.4216C4.05255 12.4802 4.10177 12.5435 4.13458 12.5575C4.17911 12.581 4.51192 12.588 5.50098 12.588C6.98458 12.588 6.91427 12.5974 7.00098 12.4052L7.05255 12.295L7.04552 10.5958C7.0338 8.163 7.06427 7.71769 7.25645 7.35675C7.39708 7.09191 7.59864 6.98409 7.98067 6.96769C8.39786 6.95128 8.59005 7.04034 8.72833 7.32159C8.76583 7.40128 8.81505 7.54659 8.8338 7.64269C8.89473 7.94738 8.92286 9.14269 8.90177 10.4083C8.86895 12.2388 8.87598 12.3817 9.0213 12.5177L9.08458 12.5763L10.4111 12.5833C11.7049 12.588 11.7424 12.588 11.8174 12.5411C11.8596 12.5153 11.9135 12.4614 11.9393 12.4192C11.9861 12.3442 11.9861 12.295 11.9861 9.98409C11.9861 8.08331 11.9791 7.55597 11.951 7.26534C11.8432 6.12628 11.5807 5.41613 11.0838 4.91222C10.8518 4.6755 10.7416 4.59347 10.4861 4.46456C10.0596 4.25128 9.59786 4.15284 8.9627 4.13878C8.7377 4.13409 8.52677 4.13409 8.49395 4.14113ZM9.28145 4.92628C9.58848 4.95909 9.82989 5.02472 10.0619 5.13488C10.7299 5.45363 11.0604 6.07238 11.1916 7.23253C11.208 7.38019 11.2221 8.27784 11.2291 9.65362L11.2408 11.838H10.4557H9.67052L9.6752 9.97941C9.67755 8.32941 9.67286 8.09269 9.6377 7.83956C9.49005 6.82003 9.1713 6.36066 8.5127 6.22706C8.27833 6.17784 7.8213 6.17784 7.58458 6.22472C7.2002 6.30206 6.86036 6.52706 6.66817 6.83175C6.43145 7.20675 6.3213 7.64034 6.26505 8.42784C6.23692 8.79816 6.2463 10.3357 6.2838 11.3857L6.29786 11.838H5.51036H4.72052V8.463V5.088H5.4588H6.19708V5.45128C6.19708 5.85206 6.2088 5.90128 6.3377 6.01144C6.4713 6.12394 6.64942 6.14034 6.81348 6.05597C6.84864 6.03956 6.92598 5.94816 6.98692 5.85675C7.19786 5.52628 7.47911 5.28253 7.84239 5.11378C8.02755 5.02706 8.33927 4.93566 8.51739 4.91691C8.69552 4.89816 9.07052 4.90284 9.28145 4.92628Z" fill="#282828"/>
<path d="M2.03676 4.31926C1.76488 4.33098 1.29613 4.33567 0.991444 4.32864C0.346913 4.31458 0.316444 4.32161 0.225038 4.50442C0.143007 4.67317 0.124257 5.08333 0.152382 6.30676C0.178163 7.46458 0.189882 10.0263 0.175819 11.4208C0.166444 12.2857 0.168788 12.3302 0.213319 12.4052C0.236757 12.4474 0.293007 12.506 0.337538 12.5341L0.414882 12.588H1.73676H3.06098L3.13832 12.5107C3.26019 12.3888 3.2766 12.2599 3.27426 11.4982C3.25551 5.47004 3.24848 4.54661 3.20863 4.48801C3.09613 4.31458 2.88754 4.28411 2.03676 4.31926ZM2.49379 8.46301V11.838H1.70863H0.923475V8.46301V5.08801H1.70863H2.49379V8.46301Z" fill="#282828"/>
</svg>
