<svg width="30" height="43" viewBox="0 0 30 43" fill="none" xmlns="http://www.w3.org/2000/svg">
<path d="M10.8959 1.27869C7.8038 2.32574 5.25162 4.87793 4.15548 8.0518C3.81192 9.00069 3.76284 9.49149 3.71376 12.5181L3.64832 15.9047L3.14115 16.1664C2.19226 16.6572 0.96525 17.9988 0.474445 19.0622L0 20.0765V29.1564V38.2363L0.441725 39.1688C1.04705 40.4613 2.04502 41.492 3.33748 42.13L4.41725 42.6536H14.9696H25.5219L26.6016 42.13C27.8941 41.492 28.8921 40.4613 29.4974 39.1688L29.9391 38.2363L29.9882 29.5654C30.0209 23.5122 29.9882 20.6328 29.8573 20.0438C29.5792 18.7677 28.5649 17.3607 27.3542 16.5591L26.3399 15.872L26.2417 12.42C26.1599 9.21337 26.1272 8.86981 25.7346 7.85548C24.5075 4.61616 22.1844 2.32574 19.0269 1.27869C17.8653 0.886044 17.5545 0.853321 14.9368 0.853321C12.3519 0.853321 12.0084 0.902405 10.8959 1.27869ZM18.0289 3.81451C20.4339 4.5998 22.1844 6.2849 23.1496 8.78801C23.4769 9.63874 23.5423 10.1295 23.6077 12.6654L23.6732 15.5775H22.3644H21.0555L20.9901 12.6654C20.941 9.9005 20.9247 9.7369 20.4993 8.95161C19.9431 7.8882 18.8633 6.85751 17.8326 6.38306C17.1127 6.05586 16.7528 6.00678 14.9696 6.00678C13.0718 6.00678 12.8591 6.0395 12.0084 6.46486C10.7977 7.05383 9.71794 8.23176 9.25986 9.40969C8.96538 10.2277 8.9163 10.7021 8.9163 12.9599V15.5775H7.60748H6.29867V13.238C6.29867 10.7021 6.54407 9.16429 7.13304 8.03544C8.40913 5.46689 10.6505 3.84723 13.4153 3.47095C14.7896 3.27463 16.8346 3.43823 18.0289 3.81451ZM17.2109 9.16429C18.1762 9.85142 18.4052 10.6367 18.4052 13.2543V15.5775H14.9696H11.5339V13.4016C11.5339 11.0294 11.6648 10.3259 12.2211 9.72054C13.0554 8.82073 13.4644 8.68985 15.1332 8.73893C16.442 8.78801 16.7692 8.85345 17.2109 9.16429ZM24.9656 18.3751C25.8 18.6695 26.5526 19.2749 26.9616 20.0438C27.3215 20.7309 27.3215 20.8127 27.3706 28.5838C27.436 37.4347 27.4033 37.7946 26.4544 38.858C25.3419 40.085 25.7836 40.0359 15.5749 40.085C9.83247 40.1177 6.11871 40.0687 5.5461 39.9705C4.51541 39.7742 3.87736 39.3815 3.22295 38.5308L2.78123 37.9418V29.1564V20.3874L3.22295 19.7166C3.50108 19.2912 3.95916 18.8986 4.51541 18.6205L5.3825 18.1951H14.8878C21.5791 18.1951 24.573 18.2442 24.9656 18.3751Z" fill="black"/>
<path d="M13.1702 22.0726C12.1723 22.4325 10.8471 23.7741 10.5035 24.8048C9.94729 26.408 10.2418 28.2895 11.207 29.5001C11.6487 30.0564 11.6651 30.1545 11.7305 32.1177C11.7796 34.3918 12.0087 35.0953 12.9085 35.7824C14.5772 37.0585 17.0149 36.5186 17.8983 34.6699C18.1928 34.0646 18.2419 33.6556 18.2419 31.9869C18.2419 30.1872 18.2746 30.0073 18.5855 29.7128C19.747 28.6985 20.0906 26.0481 19.2889 24.4448C18.7654 23.3978 17.6529 22.3998 16.655 22.0562C15.7061 21.729 14.1355 21.7454 13.1702 22.0726ZM16.066 24.8375C16.5732 25.1647 17.0967 26.0154 17.0967 26.5062C17.0967 27.1443 16.6059 27.9786 16.0169 28.3385L15.477 28.6821L15.4279 31.1689L15.3789 33.6556H14.9699H14.5609L14.4791 31.1852L14.3973 28.7312L13.7919 28.1913C13.023 27.5205 12.7449 26.7516 13.0066 25.9827C13.4484 24.6412 14.9208 24.0849 16.066 24.8375Z" fill="black"/>
</svg>
