<svg width="16" height="11" viewBox="0 0 16 11" fill="none" xmlns="http://www.w3.org/2000/svg">
<path d="M10.562 0.801728C10.3338 0.920478 10.212 1.11423 10.1963 1.3861C10.1713 1.75173 10.1057 1.67048 11.8713 3.43923L13.487 5.05798H7.05259C2.21197 5.05798 0.590093 5.06735 0.496343 5.09548C0.324468 5.14548 0.111968 5.34235 0.0494677 5.5111C0.0119677 5.60798 -0.000532296 5.7111 0.0088427 5.86423C0.0213427 6.12048 0.115093 6.28923 0.321343 6.4236L0.452593 6.5111L6.96822 6.52048L13.487 6.52673L11.887 8.12985C11.0088 9.00798 10.2651 9.77673 10.237 9.8361C10.0588 10.1924 10.2245 10.6799 10.5807 10.8424C10.7682 10.9299 11.062 10.9205 11.2463 10.8267C11.4495 10.7205 15.8838 6.28298 15.9557 6.11423C16.0151 5.96423 16.0151 5.65173 15.9557 5.50173C15.887 5.34235 11.4151 0.857978 11.237 0.773602C11.0432 0.682978 10.7682 0.692353 10.562 0.801728Z" fill="#FFFAF3"/>
</svg>
