<svg width="16" height="11" viewBox="0 0 16 11" fill="none" xmlns="http://www.w3.org/2000/svg">
<path d="M10.562 0.494294C10.3338 0.613044 10.212 0.806793 10.1963 1.07867C10.1713 1.44429 10.1057 1.36304 11.8713 3.13179L13.487 4.75054H7.05259C2.21197 4.75054 0.590093 4.75992 0.496343 4.78804C0.324468 4.83804 0.111968 5.03492 0.0494677 5.20367C0.0119677 5.30054 -0.000532296 5.40367 0.0088427 5.55679C0.0213427 5.81304 0.115093 5.98179 0.321343 6.11617L0.452593 6.20367L6.96822 6.21304L13.487 6.21929L11.887 7.82242C11.0088 8.70054 10.2651 9.46929 10.237 9.52867C10.0588 9.88492 10.2245 10.3724 10.5807 10.5349C10.7682 10.6224 11.062 10.613 11.2463 10.5193C11.4495 10.413 15.8838 5.97554 15.9557 5.80679C16.0151 5.65679 16.0151 5.34429 15.9557 5.19429C15.887 5.03492 11.4151 0.550544 11.237 0.466168C11.0432 0.375544 10.7682 0.384919 10.562 0.494294Z" fill="#282828"/>
</svg>
