<svg width="195" height="195" viewBox="0 0 195 195" fill="none" xmlns="http://www.w3.org/2000/svg">
<path d="M79.9805 16.0342C64.3271 18.0527 49.9687 24.7939 38.5811 35.5342C19.8428 53.2441 11.7686 79.5234 17.3672 104.698C26.0508 143.66 64.3271 168.568 103.403 160.685C112.239 158.895 121.723 154.934 129.378 149.83C131.701 148.269 133.758 146.821 133.91 146.593C134.063 146.364 140.728 152.725 149.83 161.789C160.418 172.377 165.94 177.633 166.893 178.014C168.759 178.813 172.605 178.813 174.167 178.014C177.938 176.109 179.613 172.187 178.433 168.035C177.823 165.902 177.404 165.483 161.979 150.021C152.991 140.994 146.364 134.062 146.593 133.91C147.393 133.377 152.458 125.455 154.324 121.723C166.969 96.5479 164.15 66.6885 147.088 44.2939C135.129 28.6025 116.924 18.2432 97.3096 15.9961C93.3486 15.5771 83.5605 15.5771 79.9805 16.0342ZM98.1855 32.9443C118.447 36.2197 135.967 51.0732 142.479 70.459C144.765 77.3525 145.26 80.5898 145.26 88.7402C145.26 94.9863 145.146 96.7764 144.422 100.052C141.718 112.544 135.662 122.941 126.217 131.358C118.98 137.795 110.068 142.251 100.052 144.422C94.7959 145.564 83.8271 145.641 78.6475 144.612C55.9102 140.004 38.9619 123.703 33.6299 101.309C32.2207 95.4053 31.9922 85.7314 33.0586 79.4092C35.0391 67.9834 39.9902 58.0811 47.9502 49.8164C53.9297 43.5703 60.0615 39.4189 67.793 36.2959C77.543 32.373 87.7119 31.2686 98.1855 32.9443Z" fill="black"/>
</svg>
