<svg width="228" height="228" viewBox="0 0 228 228" fill="none" xmlns="http://www.w3.org/2000/svg">
<path d="M110.527 18.7922C94.8961 20.1281 81.5812 32.1515 78.3305 47.8265C77.7516 50.7211 77.4844 53.7492 77.4844 58.425V64.9265L71.3836 65.1047C66.5742 65.2383 64.7039 65.5054 62.7 66.2179C56.5992 68.489 51.4781 73.8773 49.4742 80.1562C49.207 81.0023 45.7781 102.778 41.8594 128.562C36.6937 162.539 34.7344 176.477 34.7344 179.372C34.7344 187.521 37.8516 195.047 43.6406 200.791C48.7172 205.912 54.1055 208.629 61.2305 209.742C63.368 210.054 80.468 210.187 115.336 210.098C172.559 209.92 168.061 210.187 175.453 206.536C178.392 205.066 180.04 203.864 182.801 201.059C184.76 199.099 187.031 196.338 187.833 194.958C191.128 189.391 192.687 181.999 191.93 175.587C191.707 173.672 188.412 151.673 184.627 126.691C179.817 95.3859 177.368 80.4679 176.7 78.6422C174.696 73.2539 170.332 68.8453 164.677 66.4851C162.361 65.5054 160.936 65.2828 156.705 65.1047L151.495 64.9265L151.273 56.8218C151.05 47.782 150.382 44.7093 147.577 39.0539C140.585 24.982 126.647 17.3672 110.527 18.7922ZM121.348 34.3781C126.424 36.0258 131.501 40.3008 133.995 44.9765C135.998 48.7172 136.711 52.3242 136.711 59.0929V65.0156H114.445H92.1797V59.2265C92.1797 52.5914 92.6695 49.8304 94.4508 46.0008C99.2156 35.9367 110.794 30.9492 121.348 34.3781ZM160.09 80.7797C161.292 81.4922 162.183 82.4718 162.673 83.5851C163.296 84.9656 169.575 125.044 176.789 173.36C177.457 177.947 177.546 179.55 177.19 181.598C175.943 188.144 171.312 193.177 164.944 194.824C162.539 195.448 156.26 195.492 112.174 195.403L62.1211 195.269L59.1375 193.844C53.3484 191.128 49.9195 186.185 49.5633 180.173C49.3852 177.68 50.8102 167.482 56.2875 131.59C60.1172 106.608 63.3234 85.6336 63.5016 84.9656C63.8133 83.407 65.2383 81.6258 66.975 80.557C68.3109 79.7554 70.0477 79.7109 113.287 79.7109H158.22L160.09 80.7797Z" fill="black"/>
</svg>
