<svg width="191" height="191" viewBox="0 0 191 191" fill="none" xmlns="http://www.w3.org/2000/svg">
<g clip-path="url(#clip0_809_6)">
<path d="M86.5469 0.522281C74.684 2.64865 65.1713 7.53556 56.7404 15.7799C48.8691 23.502 43.6092 33.0147 41.2217 44.0195C40.2891 48.2723 40.0652 58.9787 40.774 63.6418C42.6766 75.5793 47.8619 85.7635 56.3674 94.3063C58.0834 96.0223 60.4336 98.1486 61.6273 99.044L63.791 100.648L61.0678 101.655C52.6742 104.789 41.5201 111.354 34.3203 117.435C24.4346 125.717 15.5188 136.946 9.92305 148.025C3.91699 159.963 0.0373047 175.332 0 187.344V191H7.61016H15.183L15.4068 186.076C16.2648 167.013 24.6584 148.473 38.8342 134.334C50.8836 122.285 65.0594 114.898 82.4434 111.653C87.5168 110.72 103.483 110.72 108.557 111.653C125.941 114.898 140.116 122.285 152.166 134.334C164.178 146.309 171.825 161.007 174.772 177.757C175.108 179.585 175.481 183.353 175.593 186.076L175.817 191H183.39H191V187.344C190.963 175.332 187.083 159.963 181.077 148.025C175.481 136.946 166.565 125.717 156.68 117.435C149.48 111.354 138.326 104.789 129.932 101.655L127.209 100.648L129.41 99.0066C130.604 98.1113 132.917 96.0223 134.595 94.3809C143.063 85.8754 148.323 75.5793 150.226 63.6418C150.935 58.9787 150.711 48.2723 149.778 44.0195C146.048 26.9713 135.229 13.1313 119.562 5.29728C116.764 3.91701 110.385 1.75334 106.691 0.932632C102.886 0.0746246 90.4266 -0.149203 86.5469 0.522281ZM102.663 15.8172C111.093 17.4213 118.592 21.5248 124.448 27.7174C131.76 35.3649 135.416 44.5791 135.416 55.2109C135.416 65.8428 131.76 75.057 124.448 82.7045C116.726 90.8742 106.766 95.127 95.5 95.127C84.234 95.127 74.2736 90.8742 66.5516 82.7045C59.2398 75.057 55.584 65.8428 55.584 55.2109C55.584 50.324 56.1436 46.7055 57.5984 42.3781C62.1123 28.9111 73.8633 18.6897 88.0391 15.8545C91.3592 15.183 99.2678 15.183 102.663 15.8172Z" fill="black"/>
</g>
<defs>
<clipPath id="clip0_809_6">
<rect width="191" height="191" fill="white"/>
</clipPath>
</defs>
</svg>
